<svg xmlns="http://www.w3.org/2000/svg" xmlns:xlink="http://www.w3.org/1999/xlink" width="500" zoomAndPan="magnify" viewBox="0 0 375 374.999991" height="500" preserveAspectRatio="xMidYMid meet" version="1.0"><defs><filter x="0%" y="0%" width="100%" height="100%" id="f7b5332b19"><feColorMatrix values="0 0 0 0 1 0 0 0 0 1 0 0 0 0 1 0 0 0 1 0" color-interpolation-filters="sRGB"/></filter><g/><mask id="4629098349"><g filter="url(#f7b5332b19)"><rect x="-37.5" width="450" fill="#000000" y="-37.499999" height="449.999989" fill-opacity="0.2"/></g></mask><clipPath id="84fd88d3fb"><path d="M 26 42 L 82.789062 42 L 82.789062 84.09375 L 26 84.09375 Z M 26 42 " clip-rule="nonzero"/></clipPath><clipPath id="323d88ffc9"><path d="M 0.289062 0.84375 L 62 0.84375 L 62 68 L 0.289062 68 Z M 0.289062 0.84375 " clip-rule="nonzero"/></clipPath><clipPath id="6367dbb7a7"><rect x="0" width="83" y="0" height="85"/></clipPath></defs><g fill="#666666" fill-opacity="1"><g transform="translate(86.578124, 200.249987)"><g><path d="M 8.796875 0 C 8.679688 0 8.585938 -0.046875 8.515625 -0.140625 C 8.441406 -0.242188 8.40625 -0.363281 8.40625 -0.5 C 8.40625 -0.675781 8.46875 -0.816406 8.59375 -0.921875 C 8.726562 -1.035156 8.921875 -1.09375 9.171875 -1.09375 L 11.109375 -1.09375 L 11.109375 -28.1875 L 3.046875 -28.1875 L 2.703125 -25.78125 C 2.648438 -25.445312 2.578125 -25.207031 2.484375 -25.0625 C 2.398438 -24.925781 2.265625 -24.859375 2.078125 -24.859375 C 1.816406 -24.859375 1.6875 -24.984375 1.6875 -25.234375 L 1.6875 -29.375 L 21.984375 -29.375 L 21.984375 -25.234375 C 21.984375 -24.984375 21.851562 -24.859375 21.59375 -24.859375 C 21.394531 -24.859375 21.253906 -24.925781 21.171875 -25.0625 C 21.085938 -25.207031 21.019531 -25.445312 20.96875 -25.78125 L 20.625 -28.1875 L 12.546875 -28.1875 L 12.546875 -1.140625 L 15 -0.890625 C 15.457031 -0.828125 15.6875 -0.644531 15.6875 -0.34375 C 15.6875 -0.113281 15.585938 0 15.390625 0 Z M 8.796875 0 "/></g></g></g><g fill="#666666" fill-opacity="1"><g transform="translate(110.242513, 200.249987)"><g><path d="M 3.171875 0 C 3.054688 0 2.960938 -0.046875 2.890625 -0.140625 C 2.828125 -0.242188 2.796875 -0.363281 2.796875 -0.5 C 2.796875 -0.675781 2.859375 -0.816406 2.984375 -0.921875 C 3.109375 -1.035156 3.296875 -1.09375 3.546875 -1.09375 L 5.5 -1.09375 L 5.5 -28.1875 L 3.546875 -28.4375 C 3.015625 -28.5 2.75 -28.6875 2.75 -29 C 2.75 -29.25 2.859375 -29.375 3.078125 -29.375 L 14.203125 -29.375 C 16.847656 -29.375 18.953125 -28.796875 20.515625 -27.640625 C 22.078125 -26.484375 22.859375 -24.609375 22.859375 -22.015625 C 22.859375 -19.421875 22.078125 -17.5625 20.515625 -16.4375 C 18.953125 -15.3125 16.847656 -14.75 14.203125 -14.75 L 8.828125 -14.75 L 22.40625 -1.140625 L 24.5625 -0.890625 C 25.007812 -0.828125 25.234375 -0.644531 25.234375 -0.34375 C 25.234375 -0.113281 25.132812 0 24.9375 0 L 21.515625 0 L 6.9375 -14.75 L 6.9375 -1.140625 L 9.390625 -0.890625 C 9.835938 -0.828125 10.0625 -0.644531 10.0625 -0.34375 C 10.0625 -0.113281 9.960938 0 9.765625 0 Z M 14.328125 -15.9375 C 16.671875 -15.9375 18.425781 -16.457031 19.59375 -17.5 C 20.757812 -18.539062 21.34375 -20.046875 21.34375 -22.015625 C 21.34375 -23.992188 20.757812 -25.515625 19.59375 -26.578125 C 18.425781 -27.648438 16.671875 -28.1875 14.328125 -28.1875 L 6.9375 -28.1875 L 6.9375 -15.9375 Z M 14.328125 -15.9375 "/></g></g></g><g fill="#666666" fill-opacity="1"><g transform="translate(136.611404, 200.249987)"><g><path d="M 1.015625 0 C 0.898438 0 0.804688 -0.046875 0.734375 -0.140625 C 0.671875 -0.242188 0.640625 -0.363281 0.640625 -0.5 C 0.640625 -0.894531 0.878906 -1.09375 1.359375 -1.09375 L 3.125 -1.09375 L 13.109375 -29.375 L 15.046875 -29.375 L 24.9375 -1.140625 L 27.09375 -0.890625 C 27.539062 -0.828125 27.765625 -0.644531 27.765625 -0.34375 C 27.765625 -0.113281 27.664062 0 27.46875 0 L 20.96875 0 C 20.851562 0 20.757812 -0.046875 20.6875 -0.140625 C 20.613281 -0.242188 20.578125 -0.363281 20.578125 -0.5 C 20.578125 -0.894531 20.816406 -1.09375 21.296875 -1.09375 L 23.421875 -1.09375 L 20.25 -10.359375 L 7.6875 -10.359375 L 4.484375 -1.140625 L 7.140625 -0.890625 C 7.585938 -0.828125 7.8125 -0.644531 7.8125 -0.34375 C 7.8125 -0.113281 7.710938 0 7.515625 0 Z M 19.78125 -11.53125 L 13.953125 -28.109375 L 8.109375 -11.53125 Z M 19.78125 -11.53125 "/></g></g></g><g fill="#666666" fill-opacity="1"><g transform="translate(165.00868, 200.249987)"><g/></g></g><g fill="#666666" fill-opacity="1"><g transform="translate(177.686032, 200.249987)"><g><path d="M 8.796875 0 C 8.679688 0 8.585938 -0.046875 8.515625 -0.140625 C 8.441406 -0.242188 8.40625 -0.363281 8.40625 -0.5 C 8.40625 -0.675781 8.46875 -0.816406 8.59375 -0.921875 C 8.726562 -1.035156 8.921875 -1.09375 9.171875 -1.09375 L 11.109375 -1.09375 L 11.109375 -28.1875 L 3.046875 -28.1875 L 2.703125 -25.78125 C 2.648438 -25.445312 2.578125 -25.207031 2.484375 -25.0625 C 2.398438 -24.925781 2.265625 -24.859375 2.078125 -24.859375 C 1.816406 -24.859375 1.6875 -24.984375 1.6875 -25.234375 L 1.6875 -29.375 L 21.984375 -29.375 L 21.984375 -25.234375 C 21.984375 -24.984375 21.851562 -24.859375 21.59375 -24.859375 C 21.394531 -24.859375 21.253906 -24.925781 21.171875 -25.0625 C 21.085938 -25.207031 21.019531 -25.445312 20.96875 -25.78125 L 20.625 -28.1875 L 12.546875 -28.1875 L 12.546875 -1.140625 L 15 -0.890625 C 15.457031 -0.828125 15.6875 -0.644531 15.6875 -0.34375 C 15.6875 -0.113281 15.585938 0 15.390625 0 Z M 8.796875 0 "/></g></g></g><g fill="#666666" fill-opacity="1"><g transform="translate(201.350421, 200.249987)"><g><path d="M 3.171875 0 C 3.054688 0 2.960938 -0.046875 2.890625 -0.140625 C 2.828125 -0.242188 2.796875 -0.363281 2.796875 -0.5 C 2.796875 -0.675781 2.859375 -0.816406 2.984375 -0.921875 C 3.109375 -1.035156 3.296875 -1.09375 3.546875 -1.09375 L 5.5 -1.09375 L 5.5 -28.1875 L 3.546875 -28.4375 C 3.015625 -28.5 2.75 -28.6875 2.75 -29 C 2.75 -29.25 2.859375 -29.375 3.078125 -29.375 L 14.203125 -29.375 C 16.847656 -29.375 18.953125 -28.796875 20.515625 -27.640625 C 22.078125 -26.484375 22.859375 -24.609375 22.859375 -22.015625 C 22.859375 -19.421875 22.078125 -17.5625 20.515625 -16.4375 C 18.953125 -15.3125 16.847656 -14.75 14.203125 -14.75 L 8.828125 -14.75 L 22.40625 -1.140625 L 24.5625 -0.890625 C 25.007812 -0.828125 25.234375 -0.644531 25.234375 -0.34375 C 25.234375 -0.113281 25.132812 0 24.9375 0 L 21.515625 0 L 6.9375 -14.75 L 6.9375 -1.140625 L 9.390625 -0.890625 C 9.835938 -0.828125 10.0625 -0.644531 10.0625 -0.34375 C 10.0625 -0.113281 9.960938 0 9.765625 0 Z M 14.328125 -15.9375 C 16.671875 -15.9375 18.425781 -16.457031 19.59375 -17.5 C 20.757812 -18.539062 21.34375 -20.046875 21.34375 -22.015625 C 21.34375 -23.992188 20.757812 -25.515625 19.59375 -26.578125 C 18.425781 -27.648438 16.671875 -28.1875 14.328125 -28.1875 L 6.9375 -28.1875 L 6.9375 -15.9375 Z M 14.328125 -15.9375 "/></g></g></g><g fill="#666666" fill-opacity="1"><g transform="translate(227.719313, 200.249987)"><g><path d="M 1.015625 0 C 0.898438 0 0.804688 -0.046875 0.734375 -0.140625 C 0.671875 -0.242188 0.640625 -0.363281 0.640625 -0.5 C 0.640625 -0.894531 0.878906 -1.09375 1.359375 -1.09375 L 3.125 -1.09375 L 13.109375 -29.375 L 15.046875 -29.375 L 24.9375 -1.140625 L 27.09375 -0.890625 C 27.539062 -0.828125 27.765625 -0.644531 27.765625 -0.34375 C 27.765625 -0.113281 27.664062 0 27.46875 0 L 20.96875 0 C 20.851562 0 20.757812 -0.046875 20.6875 -0.140625 C 20.613281 -0.242188 20.578125 -0.363281 20.578125 -0.5 C 20.578125 -0.894531 20.816406 -1.09375 21.296875 -1.09375 L 23.421875 -1.09375 L 20.25 -10.359375 L 7.6875 -10.359375 L 4.484375 -1.140625 L 7.140625 -0.890625 C 7.585938 -0.828125 7.8125 -0.644531 7.8125 -0.34375 C 7.8125 -0.113281 7.710938 0 7.515625 0 Z M 19.78125 -11.53125 L 13.953125 -28.109375 L 8.109375 -11.53125 Z M 19.78125 -11.53125 "/></g></g></g><g fill="#666666" fill-opacity="1"><g transform="translate(256.116588, 200.249987)"><g><path d="M 3.171875 0 C 3.054688 0 2.960938 -0.046875 2.890625 -0.140625 C 2.828125 -0.242188 2.796875 -0.363281 2.796875 -0.5 C 2.796875 -0.675781 2.859375 -0.816406 2.984375 -0.921875 C 3.109375 -1.035156 3.296875 -1.09375 3.546875 -1.09375 L 5.5 -1.09375 L 5.5 -28.109375 L 3.59375 -28.359375 C 3.28125 -28.410156 3.0625 -28.472656 2.9375 -28.546875 C 2.8125 -28.617188 2.75 -28.753906 2.75 -28.953125 C 2.75 -29.234375 2.890625 -29.375 3.171875 -29.375 L 6.84375 -29.375 L 23.546875 -5.328125 C 24.328125 -4.140625 24.957031 -3.082031 25.4375 -2.15625 L 25.4375 -28.28125 L 22.859375 -28.28125 C 22.753906 -28.28125 22.664062 -28.328125 22.59375 -28.421875 C 22.519531 -28.523438 22.484375 -28.644531 22.484375 -28.78125 C 22.484375 -29.175781 22.722656 -29.375 23.203125 -29.375 L 29.375 -29.375 C 29.570312 -29.375 29.671875 -29.257812 29.671875 -29.03125 C 29.671875 -28.726562 29.445312 -28.546875 29 -28.484375 L 26.796875 -28.234375 L 26.796875 0 L 25.4375 0 L 8.703125 -24.09375 C 7.972656 -25.164062 7.351562 -26.179688 6.84375 -27.140625 L 6.84375 -1.140625 L 9.296875 -0.890625 C 9.742188 -0.828125 9.96875 -0.644531 9.96875 -0.34375 C 9.96875 -0.113281 9.867188 0 9.671875 0 Z M 3.171875 0 "/></g></g></g><g mask="url(#4629098349)"><g transform="matrix(1, 0, 0, 1, 146, 145)"><g clip-path="url(#6367dbb7a7)"><path fill="#1c1c1b" d="M 3.484375 55.441406 C 3.441406 55.382812 3.402344 55.324219 3.355469 55.273438 C 3.3125 55.21875 3.261719 55.171875 3.210938 55.132812 C 3.15625 55.089844 3.101562 55.054688 3.046875 55.027344 C 2.988281 55 2.929688 54.976562 2.871094 54.964844 C 2.8125 54.953125 2.757812 54.945312 2.699219 54.945312 C 2.644531 54.949219 2.589844 54.957031 2.535156 54.96875 C 2.484375 54.984375 2.433594 55.003906 2.386719 55.027344 C 2.34375 55.054688 2.300781 55.085938 2.261719 55.117188 C 2.222656 55.152344 2.191406 55.191406 2.160156 55.230469 C 2.132812 55.273438 2.101562 55.316406 2.082031 55.367188 L 2.070312 55.382812 L 2.066406 55.402344 L 2.050781 55.4375 C 2.046875 55.449219 2.042969 55.464844 2.035156 55.476562 C 2.03125 55.488281 2.027344 55.5 2.023438 55.511719 L 2.015625 55.542969 C 2.015625 55.550781 2.015625 55.554688 2.011719 55.5625 L 2.011719 55.582031 L 2.007812 55.621094 C 2.003906 55.625 2.003906 55.632812 2.003906 55.640625 L 2.003906 55.660156 C 1.976562 55.894531 2.003906 56.121094 2.074219 56.34375 C 2.144531 56.566406 2.253906 56.785156 2.394531 56.992188 C 2.535156 57.195312 2.695312 57.394531 2.878906 57.582031 C 2.96875 57.675781 3.066406 57.765625 3.164062 57.851562 L 3.199219 57.886719 L 3.230469 57.910156 C 3.238281 57.921875 3.25 57.929688 3.261719 57.9375 L 3.300781 57.964844 L 3.457031 58.082031 C 3.558594 58.15625 3.679688 58.234375 3.792969 58.3125 C 3.90625 58.390625 4.023438 58.464844 4.140625 58.539062 C 4.257812 58.617188 4.378906 58.6875 4.5 58.757812 C 4.617188 58.832031 4.742188 58.898438 4.863281 58.96875 C 4.925781 59 4.984375 59.039062 5.046875 59.070312 L 5.230469 59.171875 C 5.292969 59.203125 5.355469 59.238281 5.417969 59.269531 L 5.605469 59.363281 C 6.109375 59.617188 6.621094 59.859375 7.148438 60.082031 L 7.539062 60.246094 C 7.671875 60.300781 7.804688 60.355469 7.9375 60.40625 C 8.070312 60.460938 8.203125 60.511719 8.335938 60.5625 C 8.46875 60.613281 8.601562 60.664062 8.738281 60.714844 C 8.804688 60.738281 8.871094 60.761719 8.9375 60.789062 L 9.144531 60.863281 L 9.355469 60.941406 L 9.558594 61.019531 L 9.765625 61.097656 C 9.832031 61.121094 9.902344 61.148438 9.96875 61.171875 L 10.371094 61.316406 C 10.640625 61.414062 10.910156 61.507812 11.183594 61.597656 C 11.457031 61.691406 11.734375 61.777344 12.007812 61.867188 L 12.421875 62 C 12.558594 62.042969 12.699219 62.085938 12.839844 62.128906 C 12.976562 62.171875 13.117188 62.214844 13.257812 62.253906 C 13.398438 62.296875 13.535156 62.34375 13.675781 62.386719 C 14.234375 62.558594 14.800781 62.726562 15.367188 62.910156 C 15.648438 63 15.929688 63.09375 16.214844 63.1875 C 16.496094 63.285156 16.777344 63.378906 17.058594 63.480469 C 17.34375 63.578125 17.621094 63.6875 17.898438 63.792969 L 18.300781 63.941406 C 18.4375 63.988281 18.574219 64.039062 18.710938 64.089844 L 19.125 64.234375 C 19.265625 64.285156 19.40625 64.332031 19.542969 64.382812 C 19.824219 64.484375 20.105469 64.585938 20.382812 64.691406 C 20.664062 64.800781 20.941406 64.910156 21.21875 65.027344 C 21.359375 65.089844 21.496094 65.144531 21.636719 65.210938 C 21.703125 65.242188 21.773438 65.273438 21.839844 65.304688 C 21.910156 65.335938 21.976562 65.371094 22.042969 65.402344 C 22.585938 65.667969 23.117188 65.96875 23.601562 66.324219 L 23.554688 66.421875 C 23.023438 66.164062 22.476562 65.945312 21.921875 65.757812 C 21.363281 65.566406 20.796875 65.40625 20.230469 65.253906 L 18.515625 64.804688 C 18.375 64.765625 18.230469 64.726562 18.089844 64.6875 L 17.660156 64.5625 C 17.378906 64.480469 17.097656 64.394531 16.8125 64.3125 C 15.683594 63.984375 14.542969 63.683594 13.402344 63.371094 C 12.832031 63.210938 12.265625 63.050781 11.699219 62.882812 C 11.132812 62.710938 10.570312 62.527344 10.011719 62.332031 L 9.59375 62.179688 C 9.523438 62.152344 9.457031 62.125 9.386719 62.097656 L 9.179688 62.019531 C 8.90625 61.910156 8.628906 61.816406 8.351562 61.703125 C 7.800781 61.488281 7.253906 61.257812 6.714844 61.011719 C 6.179688 60.761719 5.648438 60.492188 5.132812 60.203125 L 4.941406 60.09375 C 4.875 60.054688 4.8125 60.015625 4.75 59.980469 C 4.621094 59.902344 4.492188 59.828125 4.371094 59.746094 C 4.246094 59.664062 4.117188 59.585938 3.996094 59.5 C 3.875 59.417969 3.75 59.335938 3.632812 59.246094 C 3.511719 59.15625 3.390625 59.070312 3.277344 58.976562 C 3.160156 58.882812 3.042969 58.796875 2.929688 58.695312 L 2.761719 58.550781 L 2.71875 58.511719 C 2.703125 58.5 2.691406 58.484375 2.675781 58.472656 C 2.648438 58.445312 2.625 58.417969 2.597656 58.390625 C 2.496094 58.28125 2.398438 58.167969 2.300781 58.050781 C 2.113281 57.820312 1.941406 57.570312 1.800781 57.304688 C 1.664062 57.039062 1.554688 56.75 1.5 56.453125 C 1.445312 56.152344 1.453125 55.839844 1.53125 55.542969 C 1.550781 55.46875 1.574219 55.394531 1.609375 55.320312 C 1.625 55.285156 1.644531 55.253906 1.660156 55.21875 L 1.691406 55.167969 L 1.707031 55.144531 L 1.726562 55.121094 L 1.757812 55.074219 L 1.816406 55.003906 L 1.835938 54.984375 L 1.875 54.941406 C 1.933594 54.890625 1.996094 54.839844 2.0625 54.800781 C 2.132812 54.757812 2.203125 54.726562 2.277344 54.699219 C 2.355469 54.675781 2.433594 54.660156 2.511719 54.65625 C 2.589844 54.652344 2.667969 54.65625 2.746094 54.667969 C 2.824219 54.679688 2.898438 54.703125 2.972656 54.734375 C 3.042969 54.765625 3.109375 54.808594 3.175781 54.851562 C 3.238281 54.898438 3.292969 54.953125 3.347656 55.011719 C 3.449219 55.128906 3.527344 55.261719 3.582031 55.402344 Z M 3.484375 55.441406 " fill-opacity="1" fill-rule="nonzero"/><path fill="#1c1c1b" d="M 7.140625 49.761719 C 7.117188 49.695312 7.09375 49.628906 7.058594 49.566406 C 7.027344 49.503906 6.988281 49.449219 6.949219 49.394531 C 6.90625 49.34375 6.863281 49.296875 6.816406 49.257812 C 6.765625 49.214844 6.71875 49.179688 6.664062 49.15625 C 6.609375 49.128906 6.554688 49.109375 6.5 49.09375 C 6.445312 49.082031 6.390625 49.078125 6.335938 49.078125 C 6.28125 49.082031 6.226562 49.089844 6.175781 49.101562 C 6.128906 49.113281 6.078125 49.132812 6.035156 49.15625 C 5.988281 49.179688 5.945312 49.210938 5.90625 49.242188 C 5.867188 49.28125 5.832031 49.3125 5.796875 49.355469 L 5.75 49.417969 C 5.742188 49.429688 5.738281 49.441406 5.730469 49.453125 C 5.722656 49.460938 5.714844 49.472656 5.710938 49.484375 L 5.695312 49.515625 C 5.691406 49.519531 5.6875 49.523438 5.6875 49.53125 L 5.679688 49.546875 L 5.664062 49.585938 C 5.664062 49.589844 5.660156 49.59375 5.660156 49.601562 L 5.652344 49.625 C 5.570312 49.84375 5.542969 50.070312 5.558594 50.304688 C 5.574219 50.539062 5.628906 50.773438 5.714844 51.007812 C 5.800781 51.242188 5.914062 51.472656 6.046875 51.699219 C 6.113281 51.808594 6.183594 51.917969 6.257812 52.027344 L 6.285156 52.070312 L 6.308594 52.101562 C 6.316406 52.113281 6.320312 52.121094 6.332031 52.132812 L 6.363281 52.171875 L 6.488281 52.320312 C 6.570312 52.417969 6.667969 52.523438 6.757812 52.625 C 6.851562 52.726562 6.949219 52.828125 7.042969 52.929688 C 7.136719 53.03125 7.238281 53.128906 7.335938 53.226562 C 7.433594 53.324219 7.539062 53.417969 7.640625 53.515625 C 7.695312 53.5625 7.742188 53.613281 7.796875 53.660156 L 7.953125 53.800781 C 8.003906 53.847656 8.054688 53.894531 8.109375 53.941406 L 8.269531 54.078125 C 8.699219 54.441406 9.136719 54.800781 9.59375 55.140625 L 9.9375 55.394531 C 10.050781 55.476562 10.167969 55.5625 10.285156 55.644531 C 10.398438 55.726562 10.515625 55.808594 10.632812 55.890625 C 10.75 55.972656 10.867188 56.050781 10.988281 56.132812 C 11.046875 56.171875 11.105469 56.210938 11.164062 56.253906 L 11.347656 56.375 L 11.535156 56.5 L 11.894531 56.75 C 11.957031 56.789062 12.015625 56.832031 12.074219 56.871094 L 12.433594 57.105469 C 12.671875 57.261719 12.910156 57.421875 13.15625 57.574219 C 13.398438 57.726562 13.644531 57.875 13.890625 58.027344 L 14.261719 58.253906 C 14.386719 58.332031 14.511719 58.40625 14.636719 58.480469 C 14.757812 58.554688 14.886719 58.628906 15.011719 58.703125 C 15.136719 58.777344 15.261719 58.855469 15.386719 58.929688 C 15.890625 59.230469 16.398438 59.53125 16.902344 59.84375 C 17.15625 59.996094 17.410156 60.152344 17.660156 60.3125 C 17.910156 60.472656 18.164062 60.632812 18.414062 60.796875 C 18.664062 60.960938 18.90625 61.132812 19.152344 61.300781 L 19.507812 61.539062 C 19.632812 61.617188 19.75 61.703125 19.871094 61.78125 L 20.242188 62.023438 C 20.363281 62.101562 20.488281 62.183594 20.609375 62.265625 C 20.855469 62.429688 21.105469 62.59375 21.351562 62.765625 C 21.597656 62.9375 21.84375 63.109375 22.085938 63.289062 C 22.203125 63.382812 22.324219 63.46875 22.445312 63.566406 C 22.503906 63.613281 22.5625 63.65625 22.621094 63.703125 C 22.679688 63.753906 22.738281 63.800781 22.796875 63.851562 C 23.257812 64.238281 23.699219 64.652344 24.085938 65.113281 L 24.019531 65.195312 C 23.566406 64.820312 23.085938 64.480469 22.589844 64.164062 C 22.097656 63.847656 21.585938 63.554688 21.066406 63.273438 L 19.511719 62.429688 C 19.382812 62.359375 19.253906 62.285156 19.125 62.214844 L 18.738281 61.992188 C 18.484375 61.84375 18.230469 61.691406 17.976562 61.546875 C 16.953125 60.960938 15.917969 60.394531 14.886719 59.820312 C 14.371094 59.53125 13.859375 59.242188 13.347656 58.941406 C 12.839844 58.640625 12.335938 58.328125 11.839844 58.003906 L 11.472656 57.757812 C 11.410156 57.714844 11.351562 57.675781 11.289062 57.632812 L 11.109375 57.503906 C 10.867188 57.332031 10.621094 57.175781 10.378906 57.003906 C 9.894531 56.664062 9.417969 56.308594 8.957031 55.941406 C 8.492188 55.570312 8.042969 55.183594 7.609375 54.777344 L 7.449219 54.625 C 7.394531 54.574219 7.34375 54.523438 7.289062 54.46875 C 7.1875 54.367188 7.078125 54.261719 6.976562 54.152344 C 6.875 54.046875 6.773438 53.941406 6.675781 53.828125 C 6.578125 53.714844 6.476562 53.609375 6.382812 53.492188 C 6.289062 53.378906 6.191406 53.265625 6.101562 53.148438 C 6.007812 53.03125 5.917969 52.914062 5.832031 52.792969 L 5.699219 52.609375 L 5.667969 52.5625 C 5.65625 52.546875 5.648438 52.53125 5.636719 52.515625 C 5.617188 52.480469 5.597656 52.449219 5.582031 52.414062 C 5.507812 52.285156 5.4375 52.152344 5.375 52.015625 C 5.246094 51.746094 5.140625 51.464844 5.066406 51.171875 C 4.996094 50.878906 4.957031 50.574219 4.976562 50.269531 C 4.996094 49.96875 5.074219 49.664062 5.222656 49.394531 C 5.261719 49.328125 5.300781 49.261719 5.351562 49.199219 C 5.375 49.167969 5.402344 49.140625 5.429688 49.113281 L 5.46875 49.070312 L 5.492188 49.050781 L 5.511719 49.03125 L 5.558594 48.992188 L 5.605469 48.960938 L 5.628906 48.941406 L 5.652344 48.925781 L 5.703125 48.894531 C 5.773438 48.855469 5.84375 48.824219 5.917969 48.800781 C 5.996094 48.777344 6.070312 48.761719 6.152344 48.753906 C 6.230469 48.75 6.308594 48.753906 6.386719 48.765625 C 6.464844 48.78125 6.539062 48.804688 6.613281 48.835938 C 6.683594 48.867188 6.753906 48.90625 6.816406 48.953125 C 6.878906 49 6.933594 49.058594 6.984375 49.117188 C 7.035156 49.175781 7.078125 49.242188 7.113281 49.308594 C 7.183594 49.449219 7.226562 49.597656 7.25 49.75 Z M 7.140625 49.761719 " fill-opacity="1" fill-rule="nonzero"/><path fill="#1c1c1b" d="M 24.109375 65.140625 C 24.03125 65.417969 23.988281 65.683594 23.984375 65.933594 C 23.984375 66.058594 23.992188 66.179688 24.007812 66.296875 C 24.027344 66.417969 24.046875 66.53125 24.082031 66.640625 C 24.113281 66.75 24.152344 66.855469 24.199219 66.953125 C 24.246094 67.054688 24.292969 67.148438 24.351562 67.234375 C 24.464844 67.410156 24.597656 67.5625 24.738281 67.671875 C 24.878906 67.785156 25.023438 67.855469 25.15625 67.886719 C 25.285156 67.917969 25.402344 67.917969 25.523438 67.890625 C 25.648438 67.863281 25.78125 67.8125 25.925781 67.722656 C 26 67.679688 26.074219 67.628906 26.148438 67.566406 L 26.179688 67.546875 L 26.203125 67.523438 C 26.21875 67.507812 26.238281 67.496094 26.253906 67.480469 L 26.300781 67.4375 C 26.316406 67.421875 26.332031 67.40625 26.34375 67.390625 C 26.460938 67.273438 26.542969 67.15625 26.597656 67.03125 C 26.65625 66.910156 26.6875 66.773438 26.695312 66.625 C 26.695312 66.605469 26.695312 66.585938 26.695312 66.566406 C 26.695312 66.546875 26.695312 66.527344 26.695312 66.507812 C 26.691406 66.46875 26.6875 66.425781 26.683594 66.386719 C 26.671875 66.300781 26.652344 66.214844 26.628906 66.128906 C 26.574219 65.957031 26.492188 65.78125 26.386719 65.621094 C 26.277344 65.457031 26.148438 65.308594 25.996094 65.179688 L 25.941406 65.132812 L 25.878906 65.089844 C 25.859375 65.078125 25.839844 65.066406 25.820312 65.050781 C 25.796875 65.039062 25.777344 65.027344 25.757812 65.011719 C 25.671875 64.964844 25.582031 64.925781 25.484375 64.894531 C 25.390625 64.863281 25.289062 64.847656 25.183594 64.839844 C 25.074219 64.832031 24.960938 64.839844 24.84375 64.859375 C 24.726562 64.878906 24.601562 64.914062 24.480469 64.964844 C 24.355469 65.011719 24.234375 65.074219 24.105469 65.144531 L 24.023438 65.074219 C 24.203125 64.859375 24.414062 64.664062 24.667969 64.527344 C 24.917969 64.390625 25.207031 64.3125 25.496094 64.316406 C 25.785156 64.316406 26.070312 64.394531 26.328125 64.519531 C 26.585938 64.644531 26.820312 64.820312 27.015625 65.027344 C 27.214844 65.230469 27.378906 65.46875 27.5 65.730469 C 27.621094 65.988281 27.699219 66.273438 27.714844 66.5625 C 27.734375 66.847656 27.695312 67.144531 27.589844 67.414062 C 27.535156 67.550781 27.46875 67.679688 27.390625 67.800781 C 27.3125 67.921875 27.21875 68.035156 27.121094 68.140625 C 27.019531 68.242188 26.910156 68.335938 26.796875 68.421875 C 26.683594 68.507812 26.5625 68.585938 26.4375 68.65625 C 26.183594 68.792969 25.90625 68.890625 25.613281 68.914062 C 25.320312 68.941406 25.023438 68.886719 24.757812 68.765625 C 24.625 68.703125 24.5 68.628906 24.382812 68.539062 C 24.269531 68.449219 24.167969 68.347656 24.074219 68.234375 C 23.890625 68.015625 23.75 67.761719 23.652344 67.492188 C 23.554688 67.226562 23.503906 66.941406 23.496094 66.65625 C 23.492188 66.375 23.535156 66.089844 23.625 65.820312 C 23.714844 65.550781 23.851562 65.300781 24.023438 65.078125 Z M 24.109375 65.140625 " fill-opacity="1" fill-rule="nonzero"/><g clip-path="url(#84fd88d3fb)"><path fill="#1c1c1b" d="M 26.558594 67.933594 C 27.609375 68.304688 28.613281 68.78125 29.585938 69.296875 C 30.074219 69.554688 30.554688 69.828125 31.027344 70.105469 C 31.503906 70.382812 31.972656 70.671875 32.4375 70.96875 C 33.363281 71.554688 34.277344 72.167969 35.175781 72.792969 C 35.628906 73.105469 36.074219 73.421875 36.519531 73.742188 C 36.964844 74.0625 37.410156 74.386719 37.847656 74.710938 C 39.613281 76.011719 41.34375 77.351562 43.078125 78.675781 C 43.945312 79.335938 44.8125 79.996094 45.6875 80.636719 C 46.125 80.953125 46.566406 81.265625 47.007812 81.566406 C 47.230469 81.710938 47.453125 81.855469 47.675781 81.992188 C 47.898438 82.128906 48.121094 82.257812 48.339844 82.363281 L 48.257812 82.332031 C 48.511719 82.414062 48.777344 82.464844 49.035156 82.488281 C 49.296875 82.511719 49.550781 82.5 49.765625 82.445312 C 49.875 82.421875 49.972656 82.382812 50.054688 82.339844 C 50.132812 82.296875 50.199219 82.246094 50.25 82.1875 C 50.304688 82.128906 50.34375 82.066406 50.378906 81.984375 C 50.410156 81.902344 50.433594 81.808594 50.445312 81.703125 L 50.449219 81.675781 L 50.457031 81.625 C 50.476562 81.542969 50.480469 81.460938 50.46875 81.363281 C 50.457031 81.269531 50.425781 81.164062 50.382812 81.050781 C 50.289062 80.832031 50.140625 80.59375 49.957031 80.371094 C 49.777344 80.144531 49.566406 79.925781 49.339844 79.714844 C 49.117188 79.5 48.875 79.296875 48.628906 79.101562 C 48.128906 78.707031 47.601562 78.335938 47.058594 77.984375 C 46.511719 77.628906 45.953125 77.292969 45.386719 76.964844 C 44.253906 76.3125 43.085938 75.703125 41.90625 75.117188 C 41.316406 74.824219 40.722656 74.535156 40.125 74.253906 C 39.527344 73.972656 38.925781 73.691406 38.324219 73.417969 C 37.722656 73.144531 37.121094 72.875 36.511719 72.605469 C 35.90625 72.335938 35.300781 72.066406 34.6875 71.792969 C 34.535156 71.722656 34.382812 71.652344 34.226562 71.582031 C 34.148438 71.546875 34.070312 71.507812 33.992188 71.46875 C 33.910156 71.433594 33.832031 71.390625 33.742188 71.34375 L 33.71875 71.332031 C 33.71875 71.332031 33.738281 71.34375 33.710938 71.328125 L 33.640625 71.292969 C 33.597656 71.273438 33.554688 71.25 33.515625 71.226562 C 33.429688 71.183594 33.347656 71.136719 33.269531 71.085938 C 33.105469 70.988281 32.945312 70.882812 32.785156 70.757812 C 32.621094 70.632812 32.460938 70.496094 32.300781 70.308594 C 32.21875 70.214844 32.140625 70.109375 32.066406 69.972656 C 31.992188 69.835938 31.921875 69.671875 31.898438 69.460938 C 31.886719 69.359375 31.882812 69.25 31.898438 69.136719 C 31.914062 69.027344 31.945312 68.917969 31.988281 68.820312 C 32.027344 68.722656 32.078125 68.636719 32.132812 68.5625 C 32.160156 68.527344 32.1875 68.492188 32.222656 68.453125 C 32.257812 68.414062 32.210938 68.453125 32.316406 68.355469 C 32.359375 68.320312 32.382812 68.304688 32.40625 68.285156 C 32.5 68.222656 32.566406 68.191406 32.636719 68.15625 C 32.703125 68.125 32.765625 68.101562 32.828125 68.082031 C 32.949219 68.042969 33.0625 68.015625 33.171875 67.992188 C 33.390625 67.953125 33.59375 67.9375 33.792969 67.929688 C 33.992188 67.925781 34.183594 67.929688 34.367188 67.945312 C 34.554688 67.957031 34.742188 67.980469 34.90625 68 C 35.074219 68.019531 35.242188 68.042969 35.410156 68.066406 C 35.746094 68.109375 36.082031 68.160156 36.417969 68.214844 C 36.753906 68.269531 37.089844 68.332031 37.425781 68.398438 C 38.765625 68.660156 40.09375 69.019531 41.382812 69.496094 C 42.675781 69.96875 43.929688 70.566406 45.113281 71.269531 C 45.261719 71.359375 45.410156 71.449219 45.554688 71.539062 C 45.699219 71.632812 45.847656 71.726562 45.992188 71.820312 C 46.066406 71.871094 46.136719 71.917969 46.207031 71.964844 L 46.417969 72.113281 C 46.554688 72.207031 46.695312 72.304688 46.832031 72.402344 C 47.382812 72.792969 47.921875 73.195312 48.457031 73.597656 C 49.527344 74.40625 50.570312 75.234375 51.617188 76.039062 C 52.664062 76.84375 53.71875 77.628906 54.796875 78.355469 C 55.339844 78.722656 55.886719 79.070312 56.441406 79.40625 C 57.003906 79.742188 57.566406 80.066406 58.140625 80.378906 C 59.285156 80.996094 60.457031 81.558594 61.660156 82.019531 C 62.257812 82.253906 62.867188 82.457031 63.480469 82.632812 C 64.09375 82.808594 64.710938 82.953125 65.332031 83.050781 C 66.574219 83.253906 67.835938 83.285156 69.042969 83.070312 C 69.644531 82.964844 70.234375 82.796875 70.796875 82.566406 C 71.359375 82.335938 71.898438 82.042969 72.402344 81.695312 C 72.90625 81.347656 73.378906 80.949219 73.816406 80.507812 C 73.875 80.449219 73.917969 80.402344 73.964844 80.351562 C 74.015625 80.296875 74.0625 80.238281 74.109375 80.183594 L 74.144531 80.140625 L 74.183594 80.09375 L 74.40625 79.8125 C 74.601562 79.5625 74.792969 79.308594 74.976562 79.046875 C 75.160156 78.785156 75.335938 78.515625 75.507812 78.246094 C 75.679688 77.972656 75.84375 77.699219 76.003906 77.417969 C 76.328125 76.859375 76.628906 76.285156 76.914062 75.703125 C 77.203125 75.117188 77.472656 74.523438 77.734375 73.921875 C 77.863281 73.621094 77.992188 73.320312 78.121094 73.015625 L 78.308594 72.558594 L 78.40625 72.316406 L 78.433594 72.253906 L 78.460938 72.195312 L 78.519531 72.074219 L 78.742188 71.613281 L 78.960938 71.164062 L 79.402344 70.269531 C 79.695312 69.675781 79.988281 69.085938 80.261719 68.492188 C 80.539062 67.898438 80.796875 67.304688 81.03125 66.703125 C 81.261719 66.101562 81.464844 65.492188 81.632812 64.878906 C 81.671875 64.722656 81.710938 64.570312 81.746094 64.414062 L 81.800781 64.183594 L 81.851562 63.941406 C 81.917969 63.625 81.96875 63.328125 82.003906 63.019531 C 82.074219 62.40625 82.074219 61.789062 82 61.175781 C 81.929688 60.5625 81.785156 59.953125 81.585938 59.355469 C 81.386719 58.761719 81.128906 58.179688 80.835938 57.613281 C 80.542969 57.042969 80.210938 56.488281 79.851562 55.945312 C 79.496094 55.402344 79.117188 54.867188 78.726562 54.339844 C 77.945312 53.28125 77.117188 52.242188 76.320312 51.164062 C 75.921875 50.625 75.53125 50.078125 75.164062 49.511719 L 75.023438 49.296875 L 74.890625 49.082031 C 74.800781 48.9375 74.710938 48.789062 74.628906 48.652344 C 74.457031 48.371094 74.285156 48.089844 74.109375 47.816406 C 73.753906 47.265625 73.386719 46.726562 72.984375 46.21875 C 72.585938 45.710938 72.15625 45.230469 71.6875 44.796875 C 71.21875 44.363281 70.707031 43.976562 70.15625 43.667969 C 69.882812 43.515625 69.59375 43.378906 69.300781 43.261719 C 69.152344 43.207031 69.003906 43.152344 68.855469 43.105469 L 68.742188 43.070312 L 68.632812 43.039062 C 68.59375 43.027344 68.558594 43.023438 68.523438 43.015625 C 68.484375 43.007812 68.449219 43 68.410156 42.992188 C 67.792969 42.878906 67.152344 42.867188 66.511719 42.929688 C 65.871094 42.988281 65.230469 43.117188 64.601562 43.285156 C 63.972656 43.457031 63.351562 43.667969 62.738281 43.90625 C 62.125 44.144531 61.519531 44.410156 60.921875 44.6875 C 59.722656 45.25 58.554688 45.878906 57.382812 46.507812 L 57.242188 46.257812 C 58.402344 45.609375 59.566406 44.957031 60.765625 44.375 C 61.367188 44.085938 61.976562 43.808594 62.59375 43.558594 C 63.214844 43.308594 63.847656 43.082031 64.492188 42.902344 C 65.136719 42.71875 65.792969 42.574219 66.464844 42.503906 C 67.132812 42.433594 67.816406 42.429688 68.484375 42.546875 C 68.527344 42.554688 68.570312 42.5625 68.613281 42.570312 C 68.65625 42.578125 68.699219 42.585938 68.738281 42.597656 L 68.863281 42.628906 L 68.984375 42.664062 C 69.144531 42.714844 69.308594 42.769531 69.464844 42.828125 C 69.78125 42.945312 70.089844 43.085938 70.386719 43.25 C 70.980469 43.570312 71.523438 43.972656 72.023438 44.421875 C 72.523438 44.871094 72.976562 45.367188 73.394531 45.890625 C 73.816406 46.410156 74.199219 46.957031 74.566406 47.515625 C 74.75 47.792969 74.929688 48.074219 75.101562 48.355469 C 75.191406 48.5 75.277344 48.640625 75.367188 48.777344 L 75.5 48.988281 L 75.636719 49.195312 C 76.003906 49.742188 76.394531 50.277344 76.792969 50.808594 C 77.59375 51.867188 78.429688 52.898438 79.230469 53.960938 C 79.632812 54.492188 80.023438 55.03125 80.394531 55.585938 C 80.765625 56.140625 81.113281 56.707031 81.425781 57.300781 C 81.738281 57.890625 82.015625 58.5 82.234375 59.132812 C 82.453125 59.765625 82.613281 60.421875 82.695312 61.085938 C 82.78125 61.75 82.789062 62.425781 82.71875 63.09375 C 82.683594 63.425781 82.628906 63.757812 82.558594 64.085938 C 82.5 64.410156 82.421875 64.738281 82.339844 65.058594 C 82.171875 65.707031 81.960938 66.339844 81.726562 66.964844 C 81.488281 67.585938 81.226562 68.199219 80.953125 68.804688 C 80.675781 69.410156 80.386719 70.007812 80.09375 70.605469 C 79.804688 71.203125 79.511719 71.796875 79.230469 72.398438 L 79.175781 72.507812 L 79.152344 72.5625 L 79.128906 72.621094 L 78.847656 73.3125 C 78.722656 73.621094 78.59375 73.925781 78.464844 74.234375 C 78.203125 74.84375 77.929688 75.449219 77.640625 76.050781 C 77.0625 77.25 76.417969 78.417969 75.65625 79.515625 C 75.464844 79.789062 75.269531 80.058594 75.0625 80.320312 L 74.988281 80.421875 L 74.910156 80.519531 C 74.855469 80.582031 74.804688 80.648438 74.75 80.710938 C 74.699219 80.777344 74.644531 80.84375 74.589844 80.90625 C 74.53125 80.96875 74.472656 81.03125 74.414062 81.089844 C 73.945312 81.566406 73.4375 82.003906 72.886719 82.386719 C 72.335938 82.769531 71.742188 83.09375 71.125 83.351562 C 70.503906 83.609375 69.855469 83.796875 69.195312 83.914062 C 68.535156 84.035156 67.863281 84.089844 67.195312 84.082031 C 66.523438 84.078125 65.855469 84.015625 65.195312 83.914062 C 63.875 83.703125 62.585938 83.320312 61.34375 82.84375 C 60.097656 82.367188 58.890625 81.792969 57.71875 81.160156 C 57.132812 80.84375 56.554688 80.511719 55.980469 80.171875 C 55.410156 79.828125 54.847656 79.46875 54.296875 79.097656 C 53.191406 78.355469 52.121094 77.5625 51.066406 76.753906 C 50.011719 75.941406 48.96875 75.121094 47.90625 74.320312 C 47.378906 73.921875 46.84375 73.527344 46.304688 73.144531 C 46.03125 72.953125 45.761719 72.761719 45.484375 72.578125 C 45.347656 72.488281 45.210938 72.398438 45.070312 72.308594 C 44.929688 72.222656 44.789062 72.136719 44.644531 72.050781 C 43.507812 71.375 42.308594 70.804688 41.066406 70.347656 C 39.828125 69.890625 38.546875 69.542969 37.246094 69.285156 C 36.921875 69.222656 36.59375 69.160156 36.269531 69.109375 C 35.941406 69.050781 35.613281 69.003906 35.285156 68.957031 C 35.121094 68.9375 34.957031 68.914062 34.792969 68.894531 C 34.628906 68.875 34.464844 68.855469 34.304688 68.84375 C 34.140625 68.832031 33.976562 68.828125 33.816406 68.832031 C 33.65625 68.835938 33.496094 68.847656 33.339844 68.878906 C 33.261719 68.890625 33.1875 68.910156 33.113281 68.933594 C 33.078125 68.945312 33.042969 68.960938 33.011719 68.976562 C 32.976562 68.992188 32.945312 69.007812 32.921875 69.027344 C 32.914062 69.03125 32.90625 69.035156 32.90625 69.035156 C 32.914062 69.027344 32.898438 69.042969 32.894531 69.046875 C 32.886719 69.058594 32.875 69.074219 32.867188 69.085938 C 32.847656 69.113281 32.828125 69.140625 32.816406 69.171875 C 32.792969 69.230469 32.785156 69.289062 32.792969 69.351562 C 32.808594 69.480469 32.886719 69.609375 32.988281 69.726562 C 33.085938 69.84375 33.207031 69.949219 33.332031 70.046875 C 33.460938 70.144531 33.59375 70.234375 33.734375 70.316406 C 33.804688 70.359375 33.875 70.398438 33.945312 70.4375 C 33.980469 70.457031 34.015625 70.476562 34.054688 70.496094 L 34.105469 70.523438 C 34.113281 70.527344 34.128906 70.53125 34.136719 70.539062 L 34.164062 70.554688 C 34.308594 70.628906 34.457031 70.699219 34.605469 70.769531 C 34.757812 70.839844 34.90625 70.910156 35.058594 70.976562 C 35.664062 71.25 36.273438 71.519531 36.878906 71.792969 C 37.484375 72.066406 38.089844 72.339844 38.695312 72.617188 C 39.300781 72.894531 39.902344 73.175781 40.503906 73.460938 C 41.105469 73.75 41.703125 74.039062 42.296875 74.339844 C 43.488281 74.933594 44.667969 75.554688 45.820312 76.226562 C 46.398438 76.558594 46.964844 76.90625 47.523438 77.273438 C 48.082031 77.640625 48.632812 78.027344 49.15625 78.445312 C 49.417969 78.65625 49.671875 78.875 49.917969 79.109375 C 50.160156 79.34375 50.394531 79.589844 50.609375 79.855469 C 50.820312 80.125 51.015625 80.414062 51.148438 80.746094 C 51.214844 80.910156 51.265625 81.085938 51.285156 81.269531 C 51.308594 81.449219 51.296875 81.640625 51.253906 81.824219 L 51.257812 81.804688 C 51.234375 81.96875 51.195312 82.136719 51.128906 82.296875 C 51.0625 82.460938 50.964844 82.609375 50.84375 82.742188 C 50.726562 82.871094 50.582031 82.976562 50.425781 83.054688 C 50.273438 83.136719 50.109375 83.191406 49.949219 83.230469 C 49.617188 83.304688 49.285156 83.3125 48.960938 83.28125 C 48.636719 83.253906 48.316406 83.183594 48.007812 83.082031 L 47.984375 83.074219 C 47.730469 82.949219 47.492188 82.808594 47.257812 82.660156 C 47.023438 82.515625 46.792969 82.363281 46.566406 82.210938 C 46.109375 81.898438 45.667969 81.578125 45.226562 81.25 C 44.347656 80.597656 43.480469 79.929688 42.617188 79.261719 C 40.894531 77.917969 39.175781 76.574219 37.429688 75.261719 C 36.558594 74.605469 35.679688 73.957031 34.792969 73.328125 C 33.90625 72.695312 33.007812 72.078125 32.09375 71.484375 C 31.183594 70.890625 30.253906 70.324219 29.304688 69.804688 C 28.351562 69.28125 27.378906 68.804688 26.371094 68.433594 Z M 26.558594 67.933594 " fill-opacity="1" fill-rule="nonzero"/></g><g clip-path="url(#323d88ffc9)"><path fill="#1c1c1b" d="M 26.414062 24.265625 C 26.433594 23.933594 26.410156 23.597656 26.359375 23.265625 C 26.308594 22.933594 26.234375 22.605469 26.144531 22.28125 C 25.957031 21.632812 25.703125 21.007812 25.394531 20.410156 C 24.773438 19.214844 23.9375 18.136719 22.933594 17.246094 C 22.433594 16.796875 21.894531 16.398438 21.324219 16.046875 C 20.753906 15.695312 20.152344 15.394531 19.53125 15.140625 C 19.21875 15.015625 18.90625 14.90625 18.585938 14.804688 C 18.265625 14.699219 17.941406 14.613281 17.617188 14.535156 L 17.371094 14.476562 L 17.125 14.425781 L 17.003906 14.398438 L 16.875 14.375 L 16.746094 14.347656 L 16.617188 14.316406 C 16.277344 14.234375 15.941406 14.121094 15.617188 13.976562 C 15.292969 13.832031 14.980469 13.65625 14.691406 13.453125 C 14.398438 13.246094 14.128906 13.011719 13.878906 12.757812 C 13.382812 12.25 12.980469 11.667969 12.628906 11.070312 C 12.277344 10.46875 11.976562 9.84375 11.695312 9.222656 L 11.644531 9.113281 C 11.636719 9.09375 11.628906 9.074219 11.621094 9.058594 L 11.59375 9.007812 L 11.476562 8.789062 C 11.398438 8.640625 11.320312 8.496094 11.238281 8.351562 C 11.074219 8.058594 10.902344 7.773438 10.722656 7.496094 C 10.546875 7.21875 10.355469 6.953125 10.15625 6.695312 C 9.957031 6.441406 9.742188 6.199219 9.515625 5.980469 C 9.289062 5.761719 9.042969 5.566406 8.789062 5.417969 C 8.660156 5.34375 8.53125 5.28125 8.398438 5.230469 C 8.265625 5.183594 8.128906 5.148438 7.996094 5.132812 C 7.730469 5.097656 7.460938 5.125 7.199219 5.21875 L 7.152344 5.238281 C 7.136719 5.242188 7.121094 5.25 7.105469 5.257812 L 7.054688 5.277344 L 7.007812 5.300781 C 6.992188 5.308594 6.976562 5.316406 6.957031 5.324219 L 6.90625 5.351562 C 6.871094 5.367188 6.835938 5.386719 6.800781 5.40625 C 6.664062 5.480469 6.527344 5.558594 6.394531 5.644531 C 5.863281 5.988281 5.382812 6.414062 4.960938 6.890625 C 4.535156 7.371094 4.164062 7.902344 3.832031 8.464844 C 3.503906 9.027344 3.21875 9.617188 2.96875 10.222656 C 2.464844 11.441406 2.097656 12.71875 1.816406 14.019531 C 1.535156 15.316406 1.339844 16.640625 1.214844 17.96875 C 1.152344 18.628906 1.109375 19.296875 1.085938 19.960938 C 1.0625 20.625 1.054688 21.292969 1.078125 21.945312 C 1.082031 22.027344 1.085938 22.109375 1.089844 22.1875 L 1.105469 22.433594 C 1.113281 22.597656 1.128906 22.761719 1.140625 22.925781 C 1.167969 23.253906 1.203125 23.585938 1.242188 23.914062 C 1.324219 24.570312 1.429688 25.222656 1.558594 25.871094 C 1.816406 27.171875 2.160156 28.457031 2.570312 29.722656 C 3.402344 32.25 4.496094 34.699219 5.757812 37.058594 C 6.390625 38.238281 7.066406 39.394531 7.773438 40.535156 C 8.128906 41.101562 8.492188 41.667969 8.863281 42.226562 C 9.234375 42.785156 9.613281 43.339844 10 43.890625 C 11.542969 46.089844 13.199219 48.210938 14.941406 50.265625 C 16.683594 52.316406 18.503906 54.304688 20.394531 56.21875 C 21.339844 57.179688 22.304688 58.121094 23.289062 59.039062 C 24.269531 59.960938 25.269531 60.863281 26.289062 61.734375 C 26.796875 62.171875 27.308594 62.605469 27.828125 63.027344 C 28.347656 63.445312 28.875 63.859375 29.40625 64.253906 C 29.667969 64.453125 29.9375 64.644531 30.203125 64.828125 C 30.472656 65.015625 30.742188 65.191406 31.003906 65.34375 C 31.066406 65.382812 31.132812 65.421875 31.191406 65.453125 C 31.253906 65.488281 31.316406 65.515625 31.367188 65.539062 C 31.390625 65.550781 31.417969 65.5625 31.433594 65.570312 C 31.453125 65.578125 31.464844 65.582031 31.464844 65.582031 C 31.460938 65.578125 31.457031 65.578125 31.441406 65.574219 C 31.421875 65.570312 31.398438 65.566406 31.339844 65.566406 C 31.285156 65.566406 31.199219 65.5625 31.03125 65.628906 C 30.863281 65.683594 30.621094 65.910156 30.558594 66.117188 C 30.484375 66.320312 30.503906 66.429688 30.507812 66.496094 C 30.515625 66.566406 30.523438 66.59375 30.53125 66.613281 C 30.539062 66.644531 30.535156 66.625 30.523438 66.601562 L 30.503906 66.539062 L 30.414062 66.300781 C 30.351562 66.140625 30.292969 65.980469 30.234375 65.820312 C 29.996094 65.175781 29.765625 64.53125 29.542969 63.882812 C 29.320312 63.234375 29.101562 62.585938 28.890625 61.933594 C 28.683594 61.28125 28.480469 60.625 28.285156 59.964844 C 28.09375 59.308594 27.90625 58.644531 27.730469 57.980469 C 27.027344 55.324219 26.464844 52.625 26.089844 49.890625 C 25.996094 49.207031 25.914062 48.523438 25.84375 47.835938 C 25.773438 47.152344 25.71875 46.464844 25.675781 45.769531 L 25.648438 45.25 C 25.640625 45.078125 25.632812 44.902344 25.625 44.730469 L 25.617188 44.472656 L 25.609375 44.210938 C 25.605469 44.039062 25.601562 43.867188 25.597656 43.691406 C 25.589844 43 25.59375 42.308594 25.609375 41.621094 C 25.628906 40.929688 25.660156 40.242188 25.699219 39.554688 C 25.742188 38.863281 25.792969 38.179688 25.855469 37.492188 C 25.980469 36.121094 26.148438 34.757812 26.351562 33.398438 C 26.757812 30.683594 27.296875 27.988281 27.960938 25.328125 C 28.128906 24.664062 28.300781 24 28.480469 23.339844 C 28.660156 22.675781 28.851562 22.019531 29.046875 21.359375 C 29.4375 20.046875 29.859375 18.742188 30.3125 17.445312 C 30.769531 16.148438 31.257812 14.863281 31.796875 13.589844 C 32.066406 12.957031 32.347656 12.324219 32.644531 11.695312 C 32.722656 11.539062 32.796875 11.382812 32.875 11.226562 L 32.992188 10.992188 L 33.113281 10.757812 C 33.191406 10.605469 33.273438 10.449219 33.355469 10.292969 L 33.484375 10.0625 L 33.546875 9.945312 L 33.613281 9.832031 C 33.660156 9.753906 33.703125 9.675781 33.746094 9.601562 L 33.882812 9.371094 C 33.929688 9.292969 33.980469 9.21875 34.027344 9.140625 C 34.050781 9.101562 34.074219 9.0625 34.097656 9.027344 L 34.167969 8.917969 L 34.238281 8.8125 L 34.300781 8.714844 C 34.347656 8.636719 34.394531 8.5625 34.445312 8.484375 C 34.542969 8.335938 34.640625 8.1875 34.742188 8.042969 C 35.148438 7.457031 35.582031 6.894531 36.039062 6.355469 C 36.496094 5.816406 36.976562 5.300781 37.484375 4.804688 C 37.992188 4.3125 38.527344 3.839844 39.089844 3.398438 C 39.65625 2.960938 40.25 2.550781 40.882812 2.1875 C 41.515625 1.828125 42.183594 1.515625 42.898438 1.277344 C 43.605469 1.042969 44.363281 0.890625 45.136719 0.863281 C 45.523438 0.851562 45.917969 0.871094 46.304688 0.925781 C 46.5 0.953125 46.691406 0.988281 46.882812 1.035156 C 46.929688 1.046875 46.976562 1.058594 47.023438 1.070312 C 47.074219 1.082031 47.125 1.097656 47.175781 1.109375 C 47.28125 1.144531 47.375 1.175781 47.472656 1.210938 C 47.859375 1.355469 48.230469 1.550781 48.566406 1.792969 C 48.90625 2.03125 49.207031 2.316406 49.46875 2.625 C 49.726562 2.933594 49.949219 3.261719 50.132812 3.601562 C 50.320312 3.941406 50.476562 4.289062 50.605469 4.636719 C 50.867188 5.335938 51.039062 6.042969 51.167969 6.742188 C 51.292969 7.445312 51.378906 8.140625 51.441406 8.828125 C 51.507812 9.515625 51.554688 10.199219 51.613281 10.863281 C 51.628906 11.03125 51.640625 11.195312 51.660156 11.359375 L 51.714844 11.855469 L 51.726562 11.980469 L 51.742188 12.101562 C 51.753906 12.179688 51.761719 12.261719 51.773438 12.34375 L 51.808594 12.582031 C 51.820312 12.664062 51.835938 12.742188 51.847656 12.824219 C 51.902344 13.144531 51.960938 13.464844 52.03125 13.78125 C 52.101562 14.097656 52.183594 14.414062 52.269531 14.726562 C 52.445312 15.355469 52.648438 15.976562 52.886719 16.59375 C 53.351562 17.820312 53.925781 19.023438 54.535156 20.222656 L 54.765625 20.671875 L 55 21.121094 L 55.234375 21.574219 L 55.46875 22.03125 C 55.78125 22.636719 56.085938 23.242188 56.394531 23.847656 C 57.007812 25.058594 57.621094 26.257812 58.277344 27.425781 L 58.523438 27.863281 L 58.777344 28.296875 L 59.03125 28.726562 L 59.097656 28.832031 L 59.164062 28.941406 L 59.300781 29.160156 L 59.367188 29.269531 L 59.402344 29.324219 C 59.414062 29.339844 59.425781 29.363281 59.4375 29.382812 L 59.503906 29.503906 L 59.570312 29.617188 C 59.652344 29.769531 59.734375 29.921875 59.816406 30.074219 C 59.980469 30.382812 60.140625 30.695312 60.289062 31.011719 C 60.59375 31.644531 60.863281 32.296875 61.082031 32.976562 C 61.300781 33.65625 61.460938 34.359375 61.546875 35.078125 C 61.632812 35.792969 61.636719 36.523438 61.570312 37.234375 C 61.503906 37.953125 61.363281 38.652344 61.175781 39.335938 C 61.128906 39.503906 61.078125 39.675781 61.023438 39.84375 L 60.984375 39.96875 L 60.941406 40.09375 L 60.898438 40.226562 C 60.882812 40.269531 60.867188 40.308594 60.851562 40.351562 L 60.753906 40.601562 L 60.65625 40.839844 C 60.625 40.921875 60.589844 41 60.558594 41.078125 C 60.523438 41.160156 60.492188 41.238281 60.457031 41.320312 C 60.320312 41.636719 60.175781 41.953125 60.03125 42.265625 C 59.882812 42.578125 59.730469 42.886719 59.574219 43.195312 C 58.949219 44.421875 58.25 45.609375 57.5 46.757812 C 56.75 47.90625 55.945312 49.019531 55.109375 50.101562 C 54.269531 51.183594 53.394531 52.234375 52.488281 53.257812 C 51.585938 54.28125 50.65625 55.277344 49.703125 56.253906 C 49.226562 56.742188 48.746094 57.222656 48.257812 57.699219 L 47.894531 58.058594 L 47.519531 58.414062 L 47.144531 58.761719 C 47.082031 58.820312 47.015625 58.878906 46.953125 58.933594 L 46.761719 59.105469 C 45.734375 60.011719 44.652344 60.855469 43.523438 61.632812 C 42.394531 62.40625 41.226562 63.117188 40.027344 63.765625 C 37.628906 65.070312 35.121094 66.144531 32.578125 67.105469 L 32.535156 67.007812 C 35.058594 65.996094 37.542969 64.886719 39.90625 63.550781 C 41.085938 62.882812 42.238281 62.160156 43.34375 61.375 C 44.449219 60.589844 45.507812 59.742188 46.511719 58.832031 L 46.699219 58.660156 C 46.761719 58.601562 46.824219 58.542969 46.882812 58.484375 L 47.253906 58.136719 L 47.613281 57.78125 L 47.972656 57.417969 C 48.453125 56.9375 48.925781 56.449219 49.390625 55.960938 C 50.328125 54.976562 51.242188 53.972656 52.125 52.945312 C 53.894531 50.886719 55.554688 48.734375 57.011719 46.449219 C 57.738281 45.304688 58.414062 44.128906 59.019531 42.917969 C 59.167969 42.613281 59.316406 42.308594 59.457031 42 C 59.597656 41.695312 59.734375 41.382812 59.863281 41.070312 C 59.996094 40.761719 60.121094 40.445312 60.238281 40.128906 C 60.253906 40.089844 60.269531 40.050781 60.28125 40.011719 L 60.320312 39.890625 C 60.347656 39.8125 60.371094 39.730469 60.398438 39.652344 C 60.445312 39.488281 60.492188 39.328125 60.535156 39.164062 C 60.710938 38.511719 60.835938 37.847656 60.890625 37.179688 C 60.949219 36.507812 60.9375 35.832031 60.851562 35.164062 C 60.769531 34.5 60.613281 33.839844 60.398438 33.199219 C 60.1875 32.5625 59.925781 31.9375 59.628906 31.332031 C 59.480469 31.027344 59.324219 30.726562 59.164062 30.429688 C 59.082031 30.28125 59 30.132812 58.917969 29.988281 L 58.789062 29.769531 C 58.769531 29.730469 58.746094 29.695312 58.722656 29.660156 L 58.65625 29.554688 C 58.292969 28.980469 57.941406 28.394531 57.605469 27.804688 C 56.929688 26.625 56.300781 25.421875 55.679688 24.214844 C 55.367188 23.609375 55.058594 23.007812 54.742188 22.40625 L 54.507812 21.957031 L 54.269531 21.507812 C 54.109375 21.207031 53.949219 20.90625 53.792969 20.605469 C 53.167969 19.398438 52.574219 18.171875 52.082031 16.902344 C 51.832031 16.269531 51.613281 15.621094 51.425781 14.964844 C 51.332031 14.636719 51.25 14.308594 51.171875 13.976562 C 51.09375 13.644531 51.03125 13.308594 50.972656 12.972656 C 50.910156 12.636719 50.863281 12.296875 50.824219 11.960938 L 50.765625 11.453125 C 50.746094 11.285156 50.730469 11.117188 50.714844 10.945312 C 50.652344 10.269531 50.601562 9.59375 50.535156 8.921875 C 50.464844 8.246094 50.378906 7.574219 50.253906 6.914062 C 50.128906 6.25 49.96875 5.59375 49.730469 4.96875 C 49.492188 4.34375 49.179688 3.742188 48.746094 3.234375 C 48.53125 2.984375 48.285156 2.753906 48.015625 2.566406 C 47.746094 2.375 47.449219 2.21875 47.140625 2.105469 C 47.0625 2.078125 46.984375 2.050781 46.90625 2.027344 L 46.785156 1.996094 C 46.746094 1.984375 46.703125 1.972656 46.664062 1.964844 C 46.5 1.925781 46.335938 1.898438 46.171875 1.875 C 45.839844 1.828125 45.507812 1.8125 45.171875 1.824219 C 44.503906 1.851562 43.839844 1.988281 43.203125 2.199219 C 42.566406 2.414062 41.957031 2.703125 41.375 3.039062 C 40.789062 3.375 40.234375 3.761719 39.703125 4.175781 C 39.171875 4.59375 38.664062 5.042969 38.183594 5.515625 C 37.699219 5.988281 37.242188 6.484375 36.804688 7.003906 C 36.371094 7.519531 35.957031 8.054688 35.578125 8.613281 C 35.480469 8.75 35.386719 8.890625 35.296875 9.035156 C 35.25 9.105469 35.203125 9.175781 35.160156 9.246094 L 35.09375 9.355469 L 35.023438 9.464844 C 34.839844 9.746094 34.664062 10.035156 34.5 10.328125 L 34.4375 10.441406 L 34.375 10.550781 L 34.253906 10.773438 C 34.175781 10.921875 34.097656 11.070312 34.019531 11.222656 L 33.792969 11.675781 C 33.71875 11.828125 33.644531 11.980469 33.574219 12.132812 C 33.28125 12.746094 33.007812 13.363281 32.746094 13.988281 C 32.222656 15.238281 31.742188 16.503906 31.296875 17.785156 C 30.851562 19.066406 30.433594 20.355469 30.050781 21.65625 C 29.859375 22.304688 29.675781 22.957031 29.5 23.613281 C 29.320312 24.265625 29.152344 24.921875 28.988281 25.582031 C 28.339844 28.210938 27.804688 30.871094 27.40625 33.554688 C 27.207031 34.894531 27.046875 36.238281 26.921875 37.589844 C 26.859375 38.261719 26.8125 38.9375 26.769531 39.613281 C 26.730469 40.289062 26.699219 40.96875 26.683594 41.644531 C 26.671875 42.320312 26.664062 43 26.675781 43.675781 C 26.6875 44.351562 26.707031 45.027344 26.75 45.703125 C 26.789062 46.378906 26.84375 47.054688 26.910156 47.726562 C 26.980469 48.402344 27.058594 49.074219 27.148438 49.746094 C 27.515625 52.429688 28.066406 55.085938 28.761719 57.707031 C 29.453125 60.328125 30.289062 62.910156 31.21875 65.457031 C 31.277344 65.617188 31.335938 65.773438 31.394531 65.933594 L 31.484375 66.171875 L 31.503906 66.230469 C 31.511719 66.25 31.519531 66.269531 31.527344 66.296875 C 31.535156 66.320312 31.542969 66.347656 31.546875 66.378906 C 31.550781 66.410156 31.550781 66.445312 31.535156 66.488281 C 31.519531 66.535156 31.476562 66.578125 31.433594 66.59375 C 31.394531 66.609375 31.359375 66.609375 31.332031 66.609375 C 31.273438 66.609375 31.222656 66.597656 31.179688 66.585938 C 31.085938 66.558594 31.003906 66.523438 30.925781 66.488281 C 30.765625 66.414062 30.617188 66.332031 30.46875 66.242188 C 30.171875 66.066406 29.886719 65.878906 29.605469 65.683594 C 29.324219 65.488281 29.050781 65.289062 28.777344 65.085938 C 28.230469 64.679688 27.699219 64.257812 27.171875 63.828125 C 26.644531 63.398438 26.125 62.957031 25.609375 62.515625 C 24.578125 61.625 23.574219 60.710938 22.585938 59.777344 C 21.597656 58.84375 20.625 57.890625 19.675781 56.921875 C 17.769531 54.980469 15.941406 52.96875 14.191406 50.886719 C 12.445312 48.804688 10.78125 46.652344 9.226562 44.417969 C 7.675781 42.1875 6.238281 39.875 4.96875 37.46875 C 4.335938 36.265625 3.746094 35.039062 3.207031 33.789062 C 2.671875 32.542969 2.1875 31.269531 1.773438 29.972656 C 1.363281 28.675781 1.019531 27.355469 0.765625 26.019531 C 0.644531 25.351562 0.539062 24.679688 0.460938 24.003906 C 0.421875 23.664062 0.390625 23.328125 0.363281 22.988281 C 0.335938 22.648438 0.316406 22.308594 0.308594 21.96875 C 0.289062 21.285156 0.304688 20.605469 0.335938 19.925781 C 0.371094 19.246094 0.421875 18.566406 0.492188 17.890625 C 0.636719 16.539062 0.851562 15.195312 1.152344 13.867188 C 1.460938 12.542969 1.855469 11.230469 2.390625 9.976562 C 2.660156 9.351562 2.964844 8.738281 3.316406 8.15625 C 3.671875 7.570312 4.074219 7.011719 4.535156 6.507812 C 5 6 5.523438 5.550781 6.105469 5.1875 C 6.253906 5.09375 6.402344 5.011719 6.554688 4.929688 C 6.59375 4.910156 6.632812 4.894531 6.671875 4.875 C 6.707031 4.855469 6.746094 4.835938 6.789062 4.816406 L 6.847656 4.789062 L 6.90625 4.765625 C 6.929688 4.757812 6.949219 4.75 6.96875 4.742188 L 7.03125 4.722656 C 7.199219 4.664062 7.371094 4.625 7.546875 4.609375 C 7.71875 4.59375 7.898438 4.597656 8.070312 4.625 C 8.246094 4.648438 8.417969 4.695312 8.578125 4.757812 C 8.742188 4.824219 8.898438 4.902344 9.046875 4.992188 C 9.34375 5.171875 9.609375 5.394531 9.855469 5.636719 C 10.101562 5.878906 10.320312 6.140625 10.527344 6.414062 C 10.734375 6.683594 10.925781 6.96875 11.109375 7.257812 C 11.289062 7.546875 11.460938 7.839844 11.621094 8.140625 C 11.703125 8.289062 11.78125 8.441406 11.859375 8.59375 L 11.976562 8.820312 L 12.003906 8.878906 C 12.015625 8.898438 12.023438 8.917969 12.03125 8.9375 L 12.082031 9.054688 C 12.351562 9.675781 12.632812 10.292969 12.960938 10.882812 C 13.289062 11.472656 13.667969 12.035156 14.128906 12.527344 C 14.355469 12.773438 14.609375 12.996094 14.878906 13.195312 C 15.148438 13.394531 15.4375 13.566406 15.742188 13.710938 C 16.046875 13.851562 16.363281 13.964844 16.6875 14.054688 L 16.808594 14.085938 L 16.933594 14.113281 L 17.179688 14.167969 L 17.429688 14.222656 L 17.679688 14.285156 C 17.761719 14.304688 17.84375 14.328125 17.925781 14.347656 C 18.011719 14.371094 18.09375 14.390625 18.175781 14.417969 L 18.417969 14.488281 L 18.664062 14.566406 C 18.988281 14.675781 19.308594 14.792969 19.621094 14.921875 C 20.25 15.1875 20.863281 15.496094 21.441406 15.863281 C 22.015625 16.226562 22.5625 16.640625 23.066406 17.097656 C 24.078125 18.019531 24.917969 19.121094 25.53125 20.339844 C 25.683594 20.644531 25.824219 20.957031 25.949219 21.273438 C 26.011719 21.433594 26.066406 21.59375 26.121094 21.757812 C 26.175781 21.917969 26.226562 22.082031 26.269531 22.246094 C 26.359375 22.574219 26.429688 22.910156 26.476562 23.25 C 26.523438 23.585938 26.546875 23.929688 26.519531 24.273438 Z M 26.414062 24.265625 " fill-opacity="1" fill-rule="nonzero"/></g></g></g></g></svg>